<?xml version="1.0" encoding="UTF-8"?><svg id="Livello_1" xmlns="http://www.w3.org/2000/svg" viewBox="0 0 595.28 841.89"><defs><style>.cls-1,.cls-2{fill:#00a19a;}.cls-2{font-family:Coffee-Latte-Regular, 'Coffee Latte';font-size:181.44px;letter-spacing:-.1em;}</style></defs><text class="cls-2" transform="translate(144.76 669.14)"><tspan x="0" y="0">passo</tspan></text><path class="cls-1" d="M242.89,229.41c20.6-7.08,48.75-6.75,57.48,17.29,11.78,32.43-18.18,51.42-25.15,79.74-12.83,52.11,43.19,58.59,63.53,93.35,17.45,29.83-9.65,58.48-39.53,44.37-22.38-10.56-33.66-34.73-47.52-53.69-21.8-29.82-60.2-65.64-63.05-103.99-2.69-36.07,20.88-65.61,54.25-77.07Z"/><path class="cls-1" d="M263.63,171.87c22.29-22.31,54.08,12.54,32.31,32.62-22.34,20.61-52.77-12.14-32.31-32.62Z"/><path class="cls-1" d="M217.93,184.24c17.59-18.36,44.09,6.94,28.89,24.8-17.44,20.48-45.87-7.07-28.89-24.8Z"/><path class="cls-1" d="M185.68,206.11c14.8-15.69,36.45,6.87,22.9,20.8-14.61,15.03-36.04-6.87-22.9-20.8Z"/><path class="cls-1" d="M167.81,232.35c10.36-8.22,24.39,3.94,17.54,15.41-9.57,16.04-32.22-3.77-17.54-15.41Z"/><path class="cls-1" d="M159.07,261.24c8.64-9.89,21.44,4,12.69,11.78-7.97,7.08-19.32-4.2-12.69-11.78Z"/><path class="cls-1" d="M365.09,293.23c-15.13-5.2-35.8-4.96-42.22,12.7-5.77,15.88,2.09,27.37,9.48,39.43,1.85,3.01,3.67,6.07,5.24,9.24,6.01,9.27,7.66,17.39,6.43,24.72-.62,3.67-1.96,7.13-3.83,10.44-1.68,3.26-4.1,6.42-7.01,9.52-15.84,13.86-37.32,23.25-45.38,43.39-5.37,12.08,9.4,22.82,20.14,24.16,28.19,5.37,46.98-20.14,60.69-41.77,2.25-3.61,4.29-7.07,6.1-10.21,2.28-3.8,4.49-7.66,6.63-11.56,6.4-11.7,12.14-23.74,17.74-35.26,1.7-4.04,3.09-8.08,4.1-12.07,6.03-23.98-1.72-46.71-38.1-62.73Z"/><path class="cls-1" d="M349.86,250.97c-16.37-16.39-39.72,9.21-23.73,23.96s38.76-8.91,23.73-23.96Z"/><path class="cls-1" d="M383.42,260.06c-12.92-13.48-32.38,5.1-21.22,18.21,12.81,15.04,33.69-5.19,21.22-18.21Z"/><path class="cls-1" d="M407.1,276.12c-10.87-11.53-26.77,5.05-16.82,15.28,10.73,11.04,26.47-5.04,16.82-15.28Z"/><path class="cls-1" d="M420.23,295.39c-7.61-6.04-17.91,2.89-12.88,11.32,7.03,11.78,23.66-2.77,12.88-11.32Z"/><path class="cls-1" d="M426.65,316.61c-6.34-7.26-15.75,2.94-9.32,8.65,5.85,5.2,14.19-3.08,9.32-8.65Z"/><path class="cls-1" d="M500.02,227.81c15.51,46.06,20.55,88.58,15.16,127.59-5.41,39.01-17.51,72.6-36.3,100.8-21.62,31.96-48.41,55.93-80.36,71.9-32.43,17.39-66.96,25.62-103.62,24.67-71.44-2.35-129.7-35.24-174.81-98.68-31.49-44.17-45.82-88.93-43-134.28,2.82-45.34,16.21-86.11,40.18-122.3,22.56-33.83,51.46-61.08,86.7-81.77,35.71-21.15,73.54-31.48,113.49-31.02,35.71.47,69.9,11.63,102.56,33.48,32.66,21.85,59.09,57.69,79.3,107.5l.7,2.11ZM459.11,441.03c41.87-56.25,48.05-125.31,18.54-207.19-35.02-78.12-87.2-117.81-156.55-119.06-35.71,0-70.03,9.07-102.99,27.19-36.4,19.38-65.58,44.38-87.54,75-22.66,31.26-35.37,66.09-38.11,104.53-2.75,38.44,10.3,76.41,39.14,113.91,43.93,56.25,97.84,84.7,161.7,85.31,32.27,1.26,63.16-5.3,92.69-19.69,30.21-13.74,54.59-33.75,73.12-60Z"/></svg>
